<svg width="76" height="76" fill="none" xmlns="http://www.w3.org/2000/svg"><path d="M37.968 6.333C20.488 6.333 6.333 20.52 6.333 38c0 17.48 14.155 31.666 31.636 31.666C55.48 69.666 69.666 55.48 69.666 38S55.48 6.333 37.968 6.333zm.032 57c-13.997 0-25.333-11.337-25.333-25.333 0-13.997 11.336-25.334 25.333-25.334 13.997 0 25.334 11.337 25.334 25.334 0 13.996-11.337 25.333-25.334 25.333z" fill="#F8970A"/><path d="M39.584 22.167h-4.75v19l16.624 9.975 2.376-3.895-14.25-8.455V22.167z" fill="#F8970A"/></svg>