<svg width="54" height="68" fill="none" xmlns="http://www.w3.org/2000/svg"><path d="M48.405 62.5H33.739a79.134 79.134 0 006.977-7.066c8.134-9.351 12.439-19.237 12.439-28.559a26.125 26.125 0 00-52.25 0c0 9.322 4.304 19.208 12.469 28.56A75.288 75.288 0 0020.35 62.5H5.655a2.375 2.375 0 100 4.75h42.75a2.375 2.375 0 100-4.75zM5.655 26.875a21.375 21.375 0 1142.75 0c0 16.981-16.477 31.172-21.375 35.031-4.899-3.86-21.375-18.05-21.375-35.031zm33.25 0a11.875 11.875 0 10-23.75 0 11.875 11.875 0 0023.75 0zm-19 0A7.125 7.125 0 1127.03 34a7.155 7.155 0 01-7.125-7.125z" fill="#F8970A"/></svg>