<svg width="34" height="34" fill="none" xmlns="http://www.w3.org/2000/svg"><path d="M24.967 33.472C11.714 33.472.933 22.69.933 9.434A8.946 8.946 0 018.727.574a2.077 2.077 0 012.146 1.237l3.45 8.052a2.061 2.061 0 01-.171 1.94l-2.85 4.362a.67.67 0 00-.052.67 13.718 13.718 0 006.387 6.352.635.635 0 00.652-.051l4.309-2.867a2.042 2.042 0 011.957-.19l8.034 3.452a2.077 2.077 0 011.236 2.146 8.946 8.946 0 01-8.858 7.795zM8.984 1.931h-.086a7.57 7.57 0 00-6.592 7.503A22.684 22.684 0 0024.967 32.1a7.57 7.57 0 007.502-6.594.687.687 0 00-.429-.704l-8.034-3.45a.686.686 0 00-.653.05l-4.292 2.868a2.042 2.042 0 01-2.025.155 15.211 15.211 0 01-7.022-6.988 2.078 2.078 0 01.138-2.027l2.85-4.36a.67.67 0 00.05-.653L9.603 2.36a.67.67 0 00-.618-.429z" fill="#F8970A"/></svg>