<svg width="60" height="60" fill="none" xmlns="http://www.w3.org/2000/svg"><path d="M36.036 4.251a2.345 2.345 0 012.91-1.662A26.125 26.125 0 0157.41 21.054a2.343 2.343 0 01-1.663 2.91 2.259 2.259 0 01-.623.089 2.375 2.375 0 01-2.286-1.782 21.554 21.554 0 00-15.11-15.11 2.346 2.346 0 01-1.693-2.91zm-.772 12.083a11.993 11.993 0 018.402 8.401 2.345 2.345 0 002.286 1.782c.201.002.401-.028.593-.09a2.344 2.344 0 001.692-2.909 16.565 16.565 0 00-11.756-11.756 2.375 2.375 0 10-1.217 4.572zm24.492 28.648A16.685 16.685 0 0143.25 59.5C19.678 59.5.5 40.322.5 16.75A16.684 16.684 0 0115.017.243a4.839 4.839 0 014.958 2.85l5.967 13.924a4.72 4.72 0 01-.415 4.483l-4.929 7.54a22.711 22.711 0 0010.45 10.39l7.452-4.957a4.631 4.631 0 014.483-.386l13.923 5.938a4.838 4.838 0 012.85 4.957zm-4.72-.593L41.112 38.45l-7.421 4.958a4.752 4.752 0 01-4.661.327 27.46 27.46 0 01-12.707-12.647 4.75 4.75 0 01.297-4.661l4.958-7.54-5.967-13.924A11.875 11.875 0 005.25 16.75a38.03 38.03 0 0038 38 11.875 11.875 0 0011.786-10.361z" fill="#F8970A"/></svg>